<svg width="100" height="40" viewBox="0 0 100 40" fill="none" xmlns="http://www.w3.org/2000/svg">
<path d="M26.9121 14.0045C26.7805 13.9973 26.7219 13.9882 26.6646 13.9927C25.7066 14.0742 24.746 14.1347 23.7926 14.252C23.4221 14.2976 23.0431 14.424 22.7122 14.5979C22.1997 14.8669 21.9594 15.3398 22.0161 15.9228C22.0727 16.5085 22.4328 16.8973 22.9818 17.0165C23.482 17.1253 24.0121 17.169 24.5227 17.1397C25.6728 17.0739 26.5461 16.3586 26.7805 15.3144C26.8736 14.8995 26.8691 14.463 26.9121 14.0038M18.6081 9.87066C18.6615 9.57949 18.7006 9.29091 18.7683 9.00951C19.1337 7.4963 20.0324 6.41172 21.482 5.85933C23.5178 5.08351 25.6096 4.97928 27.6929 5.64892C29.6219 6.26906 30.7225 7.82005 30.7407 9.85307C30.7589 11.9779 30.7459 14.1035 30.7472 16.229C30.7472 16.7384 30.811 16.7996 31.3268 16.8003C31.6694 16.8003 32.0119 16.8003 32.3786 16.8003V20.0267C32.3642 20.0371 32.3486 20.0586 32.333 20.0586C31.291 20.0619 30.2477 20.0925 29.207 20.0553C28.4347 20.028 27.9729 19.5609 27.8075 18.7753C27.7899 18.7766 27.7626 18.7708 27.7541 18.7805C26.8613 19.8521 25.6604 20.3185 24.324 20.4612C23.0698 20.5953 21.8298 20.4924 20.6465 20.0039C18.6107 19.1629 17.77 17.3735 17.9439 15.4056C18.1197 13.4149 19.3466 11.8112 21.9093 11.3285C22.9844 11.1259 24.0955 11.1083 25.1908 11.0158C25.7385 10.9696 26.2875 10.9422 26.8587 10.9051C26.8938 10.3833 26.9088 9.88564 26.6985 9.41403C26.479 8.92352 26.0472 8.68185 25.5536 8.64407C24.972 8.59978 24.3774 8.61476 23.7985 8.68706C23.2254 8.75872 22.8529 9.12546 22.7057 9.70651C22.6849 9.78859 22.5611 9.90323 22.4843 9.90388C21.245 9.91561 20.0057 9.91105 18.7664 9.90909C18.7293 9.90909 18.6921 9.89216 18.6075 9.87197" fill="#F7F4ED"/>
<path d="M73.3075 11.2125C73.4052 10.182 72.8477 9.22381 71.9171 8.79649C71.217 8.4747 70.4772 8.43692 69.7264 8.53137C69.1194 8.60824 68.5678 8.82776 68.11 9.24401C67.5369 9.76513 67.2679 10.4263 67.2074 11.2125H73.3075ZM67.2549 14.3458C67.322 15.7802 68.3171 16.8413 69.7303 17.0348C70.3704 17.1221 71.0028 17.1266 71.6254 16.9286C72.1802 16.7521 72.6211 16.4316 72.9357 15.9346C72.9891 15.8499 73.1089 15.7548 73.1988 15.7541C74.4869 15.743 75.7751 15.7476 77.0632 15.7502C77.099 15.7502 77.1348 15.7704 77.198 15.7893C77.1752 15.8811 77.1609 15.9658 77.1342 16.0453C76.3254 18.4359 74.6816 19.8821 72.2069 20.3543C70.8882 20.6058 69.5629 20.5869 68.2643 20.2195C66.0833 19.6033 64.5523 18.2314 63.763 16.1098C62.9053 13.8071 62.904 11.4764 63.8952 9.21339C64.8759 6.97387 66.659 5.72448 69.0562 5.3408C70.4186 5.12259 71.7673 5.21443 73.0705 5.66585C75.4813 6.50095 76.7975 8.27733 77.3003 10.7188C77.5328 11.8464 77.5119 12.9857 77.4201 14.1263C77.4051 14.3113 77.3191 14.349 77.1544 14.3477C76.3677 14.3419 75.581 14.3451 74.7943 14.3451H67.2543L67.2549 14.3458Z" fill="#F7F4ED"/>
<path d="M47.077 20.0534H42.9911V19.6612C42.9911 17.0348 42.9976 14.4083 42.984 11.7819C42.982 11.3643 42.9234 10.937 42.8198 10.5325C42.5828 9.61335 41.9459 9.10135 41.0198 8.9867C40.3543 8.90398 39.6828 8.94045 39.0388 9.15998C38.8271 9.23228 38.62 9.33195 38.4279 9.44725C38.056 9.67002 37.8568 9.95339 37.8613 10.4471C37.8893 13.5257 37.8756 16.6049 37.875 19.684C37.875 19.9424 37.7482 20.0718 37.4947 20.0723C36.3342 20.0723 35.1743 20.0671 34.0138 20.0768C33.795 20.0788 33.7273 20.0149 33.7279 19.7941C33.7331 15.1809 33.7331 10.567 33.7286 5.95312C33.7286 5.75119 33.7859 5.67888 33.9949 5.68019C35.2043 5.68865 36.4143 5.68735 37.623 5.68084C37.8177 5.67953 37.8874 5.74728 37.8763 5.93749C37.8646 6.129 37.8743 6.32182 37.8743 6.57586C38.4618 6.06712 39.0655 5.7108 39.7453 5.49388C41.7642 4.84965 44.7397 5.37272 46.1288 7.58033C46.7247 8.52747 47.0607 9.56971 47.0744 10.6732C47.1121 13.7517 47.0933 16.8309 47.0965 19.9101C47.0965 19.9485 47.0868 19.9869 47.077 20.054" fill="#F7F4ED"/>
<path d="M62.2072 14.7529C62.1101 15.7743 61.7721 16.6967 61.2114 17.5318C60.0796 19.217 58.4645 20.1328 56.4808 20.4208C55.2604 20.5979 54.0478 20.538 52.8658 20.1661C51.0788 19.6033 49.7177 18.5004 48.9239 16.8009C47.6793 14.136 47.6898 11.4405 49.0567 8.82711C50.1072 6.81818 51.8662 5.71536 54.0797 5.35579C55.8602 5.06656 57.5951 5.247 59.2004 6.12574C60.9679 7.09308 61.9349 8.61084 62.1479 10.6126C62.1505 10.6406 62.142 10.6699 62.1362 10.724C62.0528 10.7305 61.9675 10.7435 61.8828 10.7435C60.6833 10.7448 59.4837 10.7435 58.2841 10.7455C58.1421 10.7455 58.0282 10.7487 57.9669 10.5683C57.6146 9.52411 56.8117 9.06682 55.7762 8.97302C53.8427 8.7991 52.7349 9.98074 52.4034 11.6737C52.1911 12.7616 52.2217 13.8488 52.6327 14.8949C53.364 16.7553 55.1699 17.109 56.559 16.5912C57.3183 16.3078 57.7976 15.745 58.0177 14.9666C58.0575 14.8259 58.0835 14.7145 58.2743 14.7158C59.5325 14.723 60.7914 14.7197 62.0496 14.721C62.0958 14.721 62.142 14.7392 62.2078 14.7523" fill="#F7F4ED"/>
<path d="M16.7664 16.3847V20.0443C16.6837 20.054 16.6095 20.0703 16.5346 20.0703C15.3552 20.071 14.1745 20.0827 12.9951 20.0612C12.6161 20.0547 12.2318 19.9869 11.8626 19.897C10.8063 19.6384 10.2397 18.9219 10.0678 17.8731C10.0248 17.6126 10.0033 17.3455 10.0033 17.081C9.99939 12.5075 10 7.93275 10 3.3586V3.06677H14.2214V15.2753C14.2214 15.3737 14.2175 15.4727 14.2233 15.5704C14.2546 16.1215 14.5079 16.371 15.0634 16.3821C15.5251 16.3905 15.9875 16.384 16.4499 16.3847H16.7664Z" fill="#F7F4ED"/>
<path d="M89.9999 1.62392C89.9609 1.76267 89.9329 1.88448 89.8925 2.00238C88.7802 5.22683 87.6646 8.44996 86.5588 11.6764C86.4748 11.9213 86.3797 11.9916 86.116 11.9285C84.568 11.5578 83.0174 11.2015 81.4642 10.8543C81.2232 10.8002 81.1718 10.7019 81.2089 10.4706C81.7553 7.07485 82.2964 3.67779 82.8311 0.280077C82.8676 0.0468753 82.9229 -0.0423669 83.1834 0.0188649C85.3644 0.530867 87.548 1.02919 89.7303 1.53403C89.8143 1.55357 89.8938 1.58809 90.0006 1.62457" fill="#F6F606"/>
<path d="M86.0469 16.6029C86.0443 18.5519 84.4872 20.1133 82.5452 20.114C80.5961 20.114 79.0058 18.5213 79.0207 16.5827C79.0364 14.6435 80.6104 13.086 82.5511 13.0899C84.4977 13.0938 86.0495 14.6533 86.0476 16.6029" fill="#F6F606"/>
<path d="M17.8228 34.2637V31.8581L13.6646 31.8106V34.1478L17.8228 34.2644V34.2637ZM17.5603 29.3176V27.013L13.6646 27.0983V29.3411L17.5603 29.3176ZM18.6707 36.9807L10.3348 36.5938V24.6314L18.7716 24.2914C20.386 24.2263 20.8706 25.1578 20.8706 26.6827V28.9014C20.8706 29.6544 20.6283 30.1892 20.2043 30.4061C20.9109 30.6647 21.1734 31.2412 21.1734 32.0548V34.7542C21.1734 35.8857 20.386 37.0602 18.6707 36.9801" fill="#F6F606"/>
<path d="M22.3651 24.1416L31.9728 23.754V26.8006L25.7157 26.9335V29.104L30.096 29.0727V32.0633L25.7157 32.0112V34.3862L31.9728 34.5569V37.6041L22.3651 37.1579V24.1416Z" fill="#F6F606"/>
<path d="M36.7112 26.7635L32.8363 26.8443V23.7143L43.9373 23.2661V26.6124L40.082 26.6931V37.9858L36.7112 37.8295V26.7635Z" fill="#F6F606"/>
<path d="M48.7011 26.5147L44.8256 26.5954V23.2335L55.9266 22.786V26.3642L52.0712 26.4443V38.5382L48.7011 38.3819V26.5147Z" fill="#F6F606"/>
<path d="M57.0852 22.7391L60.4367 22.6036V38.9265L57.0852 38.7714V22.7391Z" fill="#F6F606"/>
<path d="M69.3766 39.3453L66.6317 34.0279C65.9654 32.2561 65.2393 29.672 64.6135 27.2599C64.674 29.571 64.7144 31.832 64.7144 32.9883V39.1291L61.8281 38.9949V22.5444L65.8241 22.3835L68.8113 28.8232C69.5785 30.952 70.3652 33.5732 71.0112 35.8662C70.9103 33.5296 70.8295 31.1689 70.8295 29.8433V22.1815L73.6956 22.0662V39.5466L69.3766 39.346V39.3453Z" fill="#F6F606"/>
<path d="M82.7081 27.7425V25.832L78.4295 25.9206V35.747L82.7687 35.8636V32.8287L80.3063 32.7981V29.4095L85.9981 29.388V36.4075C85.9981 38.1194 85.3925 40.0886 83.4147 39.9974L77.8844 39.7407C76.1892 39.6619 75.1394 38.4483 75.1394 36.0381V25.2855C75.1394 22.8479 76.2498 21.9633 77.6623 21.9066L83.5964 21.6676C85.3521 21.5966 85.9981 23.0831 85.9981 25.6509V27.7054L82.7081 27.7438V27.7425Z" fill="#F6F606"/>
</svg>
